PathFileType	4	(X/Y/Z)	/Users/itak/Documents/Research/Walk-IL/dataset/trc/00336_00011.trc
DataRate	CameraRate	NumFrames	NumMarkers	Units	OrigDataRate	OrigDataStartFrame	OrigNumFrames
100.000000	100.000000	4	55	mm	100.000000	400	458
Frame#	Time	RPSI			LPSI			L3			STRN			T10			C7			CLAV			RBAK			LBAK			LSHO			LUPA			LAEL			LAOL			LWTS			LWPS			LFRA			LIFD			LHPS			LHTS			RSHO			RUPA			RAEL			RAOL			RWTS			RWPS			RFRA			RIFD			RHTS			RHPS			RBHD			LFHD			RFHD			LBHD			LHIP			RHIP			RASI			LASI			LKNE			LTHI			LANK			LTOE			LMT1			LMT5			LHEE			RKNE			RTHI			RANK			RTIP			RTOE			RMT5			RHEE			LTIP			RMT1			*53			*54			
		X1	Y1	Z1	X2	Y2	Z2	X3	Y3	Z3	X4	Y4	Z4	X5	Y5	Z5	X6	Y6	Z6	X7	Y7	Z7	X8	Y8	Z8	X9	Y9	Z9	X10	Y10	Z10	X11	Y11	Z11	X12	Y12	Z12	X13	Y13	Z13	X14	Y14	Z14	X15	Y15	Z15	X16	Y16	Z16	X17	Y17	Z17	X18	Y18	Z18	X19	Y19	Z19	X20	Y20	Z20	X21	Y21	Z21	X22	Y22	Z22	X23	Y23	Z23	X24	Y24	Z24	X25	Y25	Z25	X26	Y26	Z26	X27	Y27	Z27	X28	Y28	Z28	X29	Y29	Z29	X30	Y30	Z30	X31	Y31	Z31	X32	Y32	Z32	X33	Y33	Z33	X34	Y34	Z34	X35	Y35	Z35	X36	Y36	Z36	X37	Y37	Z37	X38	Y38	Z38	X39	Y39	Z39	X40	Y40	Z40	X41	Y41	Z41	X42	Y42	Z42	X43	Y43	Z43	X44	Y44	Z44	X45	Y45	Z45	X46	Y46	Z46	X47	Y47	Z47	X48	Y48	Z48	X49	Y49	Z49	X50	Y50	Z50	X51	Y51	Z51	X52	Y52	Z52	X53	Y53	Z53	X54	Y54	Z54	X55	Y55	Z55	

401	4	-840.35986328125	974.4412841796875	146.9048767089844	-844.9597778320312	976.4173583984375	17.28194999694824	-843.7852172851562	1033.586669921875	92.22356414794922	-611.5582275390625	1213.779052734375	50.74024963378906	-850.3917236328125	1152.97119140625	87.45468902587891	-808.4273071289062	1399.807983398438	61.24394226074219	-653.5992431640625	1339.526611328125	47.94715881347656	-850.8218994140625	1264.654174804688	140.88818359375	-830.8416748046875	1360.605712890625	-36.87466049194336	-752.7468872070312	1376.19091796875	-102.73583984375	-788.5636596679688	1261.613037109375	-168.5934906005859	-795.3290405273438	1061.720092773438	-199.8072204589844	-838.2173461914062	1045.532958984375	-129.33154296875	-716.8355102539062	809.70556640625	-213.8654174804688	-773.6693115234375	809.0997924804688	-254.2808532714844	-794.5383911132812	958.3826904296875	-221.9747467041016	-730.9291381835938	648.8788452148438	-228.2406158447266	-782.5501708984375	738.8284301757812	-254.6966705322266	-720.442626953125	733.21044921875	-240.4389190673828	-730.9177856445312	1390.089599609375	214.2072448730469	-728.6768798828125	1327.1748046875	282.7511596679688	-675.08056640625	1066.880615234375	332.8905639648438	-729.93505859375	1044.90478515625	257.4165649414062	-537.86962890625	855.603759765625	277.49365234375	-555.8321533203125	841.4708251953125	350.2707824707031	-637.0422973632812	1004.920471191406	338.989990234375	-494.3294982910156	687.8197021484375	293.5088195800781	-490.7894592285156	760.9423217773438	291.1826782226562	-528.9102783203125	759.5833129882812	348.2318725585938	-778.34765625	1594.327270507812	129.1719818115234	-615.0165405273438	1629.253662109375	3.056976795196533	-621.47314453125	1630.1533203125	104.4045867919922	-795.55322265625	1583.068603515625	-14.48980903625488	-761.7496337890625	919.4569091796875	-89.69735717773438	-763.0082397460938	914.4235229492188	254.9932250976562	-657.759521484375	938.257568359375	209.6871032714844	-641.0592651367188	943.412353515625	-30.34354019165039	-629.7953491210938	461.6247863769531	-47.37062072753906	-661.7280883789062	601.2113647460938	-70.60872650146484	-714.4948120117188	46.29384994506836	-11.43314647674561	-513.1629638671875	45.52653121948242	61.49108123779297	-582.7640380859375	32.79673767089844	95.85350799560547	-588.0965576171875	53.49095153808594	-16.24819183349609	-755.3505859375	42.69645690917969	53.30087661743164	-753.5763549804688	453.9608154296875	230.5906524658203	-699.7676391601562	701.772705078125	251.1342315673828	-1081.422241210938	182.2934417724609	208.4330902099609	-823.826416015625	355.7060241699219	223.1325378417969	-949.9862670898438	42.57789993286133	164.0942993164062	-1023.751159667969	100.7516784667969	231.9113922119141	-1111.8662109375	220.0933227539062	158.9064331054688	-667.46240234375	243.8529968261719	-39.12665939331055	-991.869384765625	75.84515380859375	119.7733154296875	nan	nan	nan	nan	nan	nan	
402	4.01	-848.3642578125	974.7744750976562	147.7186584472656	-852.746337890625	976.25341796875	18.12623977661133	-851.8899536132812	1033.864135742188	93.55140686035156	-619.1996459960938	1213.58740234375	51.46342849731445	-857.9052124023438	1153.08447265625	89.06517791748047	-815.995361328125	1399.736450195312	62.83188629150391	-661.2344970703125	1339.366821289062	48.7785530090332	-858.1600952148438	1264.736572265625	142.8118896484375	-838.8414916992188	1360.510009765625	-35.09734725952148	-761.121337890625	1376.043701171875	-101.3756103515625	-797.4739379882812	1261.5205078125	-167.0298461914062	-804.544189453125	1061.632568359375	-198.1620483398438	-846.7909545898438	1045.40869140625	-127.3401870727539	-725.37109375	809.8928833007812	-213.0960998535156	-782.6337280273438	809.0147094726562	-252.8644409179688	-803.7493896484375	958.2501220703125	-220.4332122802734	-738.9434814453125	649.0343627929688	-227.2414855957031	-791.2299194335938	738.7123413085938	-253.1876220703125	-728.385009765625	733.68994140625	-240.2980041503906	-737.6530151367188	1390.143920898438	215.3607330322266	-734.834716796875	1327.265380859375	283.937744140625	-679.865478515625	1067.156372070312	333.6567993164062	-735.5989379882812	1044.999877929688	258.7254028320312	-543.0451049804688	855.7954711914062	276.895751953125	-560.0159301757812	841.9225463867188	349.9332580566406	-641.5342407226562	1005.303100585938	339.1819763183594	-500.0818176269531	687.7515869140625	292.582275390625	-496.2393798828125	760.85693359375	290.0776062011719	-533.4737548828125	759.9183349609375	347.7410278320312	-785.4783935546875	1594.3271484375	130.2917785644531	-622.4434814453125	1628.864868164062	3.509723901748657	-628.5516357421875	1629.929443359375	104.8675003051758	-803.0758666992188	1582.84130859375	-13.41530132293701	-769.3424682617188	919.1950073242188	-88.60308074951172	-771.5390014648438	914.7931518554688	256.2517395019531	-666.0305786132812	938.0946044921875	211.2159881591797	-648.877685546875	943.2626953125	-28.7657470703125	-634.3048706054688	462.2315979003906	-46.22233963012695	-667.4694213867188	601.416748046875	-69.18277740478516	-714.6593017578125	46.1657600402832	-11.57424354553223	-513.2079467773438	45.75344085693359	61.36003494262695	-582.876708984375	32.93437576293945	95.74815368652344	-588.16943359375	53.52881240844727	-16.40630149841309	-755.4107666015625	42.47288513183594	53.22232437133789	-768.091552734375	454.07373046875	230.3121795654297	-710.5927734375	701.4794921875	251.9156494140625	-1092.537719726562	177.5468292236328	208.4693908691406	-837.29736328125	354.9120788574219	222.93017578125	-960.1152954101562	41.58341217041016	163.3689270019531	-1034.686157226562	96.00814819335938	231.2717895507812	-1123.381713867188	215.4712829589844	159.5036773681641	-669.6881713867188	244.3104095458984	-38.75990295410156	-1002.330932617188	73.06234741210938	118.8694229125977	nan	nan	nan	nan	nan	nan	
403	4.02	-856.5384521484375	974.9716186523438	148.6267700195312	-860.6793823242188	976.0615234375	19.06693840026855	-860.1091918945312	1034.01904296875	94.89437103271484	-626.885986328125	1213.244384765625	52.34737014770508	-865.4806518554688	1153.157958984375	90.55829620361328	-823.5640869140625	1399.589477539062	64.40927124023438	-668.88037109375	1339.062622070312	49.74430084228516	-865.6343383789062	1264.74755859375	144.6555633544922	-846.77587890625	1360.336181640625	-33.35399627685547	-769.3681030273438	1375.782470703125	-99.98405456542969	-806.2200317382812	1261.314331054688	-165.4417724609375	-813.6417236328125	1061.410766601562	-196.4822082519531	-855.3309936523438	1045.19140625	-125.3578414916992	-733.758056640625	809.9740600585938	-212.111328125	-791.4093017578125	808.7782592773438	-251.2959594726562	-812.8231201171875	957.9811401367188	-218.8154296875	-746.7409057617188	649.0556640625	-225.9651184082031	-799.699951171875	738.4441528320312	-251.5038757324219	-736.2539672851562	733.9584350585938	-239.7478332519531	-744.5236206054688	1390.073852539062	216.5746002197266	-741.21923828125	1327.206787109375	285.1686096191406	-684.8680419921875	1067.307006835938	334.440673828125	-741.4658813476562	1044.943359375	260.0982971191406	-548.3824462890625	855.9550170898438	276.2917175292969	-564.3233642578125	842.2941284179688	349.5741577148438	-646.2647094726562	1005.540344238281	339.4602355957031	-505.6875915527344	687.749267578125	291.6313781738281	-501.6789855957031	760.8458862304688	288.9488220214844	-538.0575561523438	760.2257080078125	347.2628479003906	-792.60986328125	1594.23583984375	131.4588623046875	-629.8728637695312	1628.35693359375	4.017199516296387	-635.6219482421875	1629.590576171875	105.3844985961914	-810.593994140625	1582.537475585938	-12.2913990020752	-777.0673217773438	918.9598999023438	-87.43309783935547	-780.27490234375	914.95458984375	257.5644226074219	-674.491455078125	937.778564453125	212.8901214599609	-656.8480834960938	943.0118408203125	-27.03788948059082	-638.9124145507812	462.8516235351562	-45.19184112548828	-673.3486938476562	601.6015625	-67.81098937988281	-714.8490600585938	46.02531814575195	-11.73624992370605	-513.2688598632812	46.02714538574219	61.15019226074219	-582.9991455078125	33.13239669799805	95.6356201171875	-588.2728881835938	53.55488967895508	-16.61805152893066	-755.5009765625	42.26208114624023	53.12861251831055	-782.5769653320312	454.1275024414062	229.9698944091797	-721.6803588867188	701.1192626953125	252.7850952148438	-1102.43798828125	171.5885467529297	208.5079956054688	-850.3679809570312	353.8493347167969	222.7166595458984	-968.1917114257812	41.15503692626953	162.7341918945312	-1043.857421875	90.50904846191406	230.6521606445312	-1133.976684570312	209.4416656494141	160.1462249755859	-671.9999389648438	244.7649078369141	-38.43149185180664	-1010.879577636719	69.93070983886719	117.9680786132812	nan	nan	nan	nan	nan	nan	
404	4.03	-864.8715209960938	975.0511474609375	149.6377868652344	-868.7815551757812	975.860595703125	20.11503982543945	-868.4283447265625	1034.046020507812	96.27175903320312	-634.6173706054688	1212.739379882812	53.39885711669922	-873.1351318359375	1153.176391601562	91.97312927246094	-831.1231079101562	1399.359497070312	65.97557067871094	-676.5264282226562	1338.6015625	50.84440994262695	-873.2318115234375	1264.686157226562	146.4356689453125	-854.6417846679688	1360.076538085938	-31.64802932739258	-777.47998046875	1375.394653320312	-98.56126403808594	-814.7919921875	1260.985229492188	-163.8338165283203	-822.5988159179688	1061.046997070312	-194.7711181640625	-863.83544921875	1044.872436523438	-123.3956527709961	-741.9968872070312	809.920166015625	-210.8936309814453	-799.9808959960938	808.384033203125	-249.5872497558594	-821.7349243164062	957.5690307617188	-217.1260986328125	-754.3390502929688	648.9203491210938	-224.4143676757812	-807.9574584960938	738.0205688476562	-249.6631622314453	-744.0686645507812	733.9967041015625	-238.7653350830078	-751.5174560546875	1389.882934570312	217.8468170166016	-747.8173828125	1327.005615234375	286.4504699707031	-690.0922241210938	1067.335083007812	335.2133178710938	-747.5325927734375	1044.74072265625	261.5262145996094	-553.8826293945312	856.0941162109375	275.6856079101562	-568.7898559570312	842.5880737304688	349.1971740722656	-651.2537231445312	1005.636840820312	339.8208618164062	-511.1147155761719	687.835693359375	290.6701354980469	-507.0856323242188	760.9349365234375	287.812255859375	-542.7003173828125	760.4901733398438	346.793212890625	-799.7388916015625	1594.030029296875	132.6610565185547	-637.3029174804688	1627.7255859375	4.584408283233643	-642.6932373046875	1629.127563476562	105.9601821899414	-818.1056518554688	1582.143188476562	-11.12461566925049	-784.9581909179688	918.7595825195312	-86.18144989013672	-789.1986694335938	914.896484375	258.9300537109375	-683.1302490234375	937.2963256835938	214.6968383789062	-664.997802734375	942.656982421875	-25.17192649841309	-643.5904541015625	463.48486328125	-44.28960800170898	-679.3257446289062	601.7785034179688	-66.5452880859375	-715.0618286132812	45.87534713745117	-11.91129207611084	-513.350830078125	46.36328125	60.85406494140625	-583.1287231445312	33.42038345336914	95.50875854492188	-588.4114379882812	53.56774520874023	-16.88286781311035	-755.6234130859375	42.06653594970703	53.02487945556641	-796.980712890625	454.092529296875	229.6063079833984	-732.9989013671875	700.6780395507812	253.7399749755859	-1111.199340820312	164.6802978515625	208.5234680175781	-863.02587890625	352.5231018066406	222.5135498046875	-974.4927368164062	41.20167541503906	162.1891937255859	-1051.325439453125	84.58078765869141	230.114013671875	-1143.683349609375	202.2424926757812	160.7314300537109	-674.3995971679688	245.2163696289062	-38.13617706298828	-1017.662963867188	66.552490234375	117.122314453125	nan	nan	nan	nan	nan	nan	
